<svg version="1.1" xmlns="http://www.w3.org/2000/svg" xmlns:xlink="http://www.w3.org/1999/xlink" width="860.98167" height="531.66735" viewBox="0,0,860.98167,531.66735"><defs><linearGradient x1="496.50074" y1="171.84544" x2="685.49926" y2="173.15456" gradientUnits="userSpaceOnUse" id="color-1"><stop offset="0" stop-color="#c5f0ff" stop-opacity="0"/><stop offset="1" stop-color="#c5f0ff"/></linearGradient><linearGradient x1="324" y1="132.5" x2="324" y2="-56.5" gradientUnits="userSpaceOnUse" id="color-2"><stop offset="0" stop-color="#c5f0ff" stop-opacity="0"/><stop offset="1" stop-color="#c5f0ff"/></linearGradient><linearGradient x1="341.58521" y1="159.5566" x2="336.27931" y2="369.4434" gradientUnits="userSpaceOnUse" id="color-3"><stop offset="0" stop-color="#c5f0ff" stop-opacity="0"/><stop offset="1" stop-color="#c5f0ff"/></linearGradient><linearGradient x1="312.7742" y1="156.45475" x2="317.09033" y2="-53.45475" gradientUnits="userSpaceOnUse" id="color-4"><stop offset="0" stop-color="#c5f0ff" stop-opacity="0"/><stop offset="1" stop-color="#c5f0ff"/></linearGradient><linearGradient x1="106.90845" y1="181.05422" x2="-103.04393" y2="180.54638" gradientUnits="userSpaceOnUse" id="color-5"><stop offset="0" stop-color="#c5f0ff" stop-opacity="0"/><stop offset="1" stop-color="#c5f0ff"/></linearGradient></defs><g transform="translate(106.56,85.03337)"><g data-paper-data="{&quot;isPaintingLayer&quot;:true}" fill-rule="nonzero" stroke="none" stroke-linecap="butt" stroke-linejoin="miter" stroke-miterlimit="10" stroke-dasharray="" stroke-dashoffset="0" style="mix-blend-mode: normal"><path d="M684.93603,422.8724l-188.99852,-1.30911l1.12648,-499.43569l188.99852,1.30911z" data-paper-data="{&quot;index&quot;:null}" fill="url(#color-1)" stroke-width="0"/><path d="M466.5,-56.5v189h-285v-189z" data-paper-data="{&quot;index&quot;:null}" fill="url(#color-2)" stroke-width="0"/><path d="M-54.5,205.5v-87h749v87z" fill="#c5f0ff" stroke-width="0"/><path d="M464.5,395.5v-424h96v424z" fill="#c5f0ff" stroke-width="0"/><path d="M108.5,407.5v-469h95v469z" fill="#c5f0ff" stroke-width="0"/><path d="M-76.55715,364.07704l5.30591,-209.88682l825.67291,10.73274l-5.30591,209.88682z" data-paper-data="{&quot;index&quot;:null}" fill="url(#color-3)" stroke-width="0"/><path d="M729.9475,-50.03517l-4.31612,209.9095l-825.71434,-6.83917l4.31613,-209.9095z" data-paper-data="{&quot;index&quot;:null}" fill="url(#color-4)" stroke-width="0"/><path d="M-106.56,-85.03337l209.95239,0.50784l7.03213,531.15951l-209.95239,-0.50784z" data-paper-data="{&quot;index&quot;:null}" fill="url(#color-5)" stroke-width="0"/><text transform="translate(393.18084,346.63398) scale(0.5,0.5)" font-size="40" xml:space="preserve" fill="#000000" fill-rule="nonzero" stroke="none" stroke-width="1" stroke-linecap="butt" stroke-linejoin="miter" stroke-miterlimit="10" stroke-dasharray="" stroke-dashoffset="0" font-family="Sans Serif" font-weight="normal" text-anchor="start" style="mix-blend-mode: normal"><tspan x="0" dy="0">Press the '?' key for help.</tspan></text></g></g></svg>